Coordinates
version=1
nRows=8
nColumns=34
inDegrees=yes

Units are S.I. units (second, meters, Newtons, ...)
If the header above contains a line with 'inDegrees', this indicates whether rotational values are in degrees (yes) or radians (no).

endheader
time	pelvis_tilt	pelvis_list	pelvis_rotation	pelvis_tx	pelvis_ty	pelvis_tz	hip_flexion_r	hip_adduction_r	hip_rotation_r	knee_angle_r	ankle_angle_r	subtalar_angle_r	mtp_angle_r	hip_flexion_l	hip_adduction_l	hip_rotation_l	knee_angle_l	ankle_angle_l	subtalar_angle_l	mtp_angle_l	lumbar_extension	lumbar_bending	lumbar_rotation	arm_flex_r	arm_add_r	arm_rot_r	elbow_flex_r	pro_sup_r	arm_flex_l	arm_add_l	arm_rot_l	elbow_flex_l	pro_sup_l
      7.86666670	     -9.20624945	     -4.50470739	      5.18261324	      0.09577248	      1.01113393	     -0.43515964	     16.39141054	     -4.86948401	    -26.99627340	     18.68828691	      4.43523550	    -20.70675222	      0.00000000	     16.56470909	    -14.89415753	    -17.04221815	     17.11156189	      2.47853532	     -8.49327662	      0.00000000	     -8.19943070	      4.78350055	      1.75205525	     21.99655139	    -13.11231940	     34.08325173	    112.77613460	     90.43059484	     14.69416468	    -10.36994495	     29.12878436	    119.85649916	     74.68867714
      7.88333330	     -9.73479895	     -4.52191143	      5.07964518	      0.08712709	      1.00400373	     -0.43457263	     18.52794308	     -5.50702127	    -26.51692257	     21.18603919	      4.88701181	    -21.91787400	      0.00000000	     18.59906009	    -15.17500864	    -16.37623123	     19.35036756	      2.89292657	     -9.76664115	      0.00000000	     -8.83337843	      4.78806440	      1.86781552	     23.06552645	    -13.13657298	     34.02124486	    112.98003715	     90.56619893	     15.85682960	    -10.10911396	     29.42347222	    120.00551521	     74.98586089
      7.90000000	    -10.30714667	     -4.48746295	      4.93008117	      0.08207218	      0.99709804	     -0.43285289	     21.06942288	     -6.27882033	    -25.79230109	     24.38762665	      5.41098862	    -23.42506114	      0.00000000	     20.92996597	    -15.46364704	    -15.65178234	     21.97029799	      3.30770343	    -11.38564173	      0.00000000	     -9.50349204	      4.66492992	      1.92943639	     24.36463205	    -13.09135373	     33.98768784	    113.02603331	     90.78636980	     17.15501937	     -9.92778462	     29.67090919	    120.01973988	     75.32730017
      7.91666670	    -10.99854360	     -4.36692225	      4.83724665	      0.07966476	      0.98886849	     -0.43187037	     23.85787837	     -7.23990533	    -25.04495074	     28.05736740	      6.16627459	    -24.83100418	      0.00000000	     23.62618451	    -15.69088515	    -14.95418093	     25.01180862	      3.86745671	    -12.97016372	      0.00000000	    -10.11550866	      4.43194176	      1.92811076	     25.66603343	    -13.03156349	     33.86243391	    113.13357193	     91.07296520	     18.35591528	     -9.83220466	     29.85796215	    120.12745287	     75.69510970
      7.93333330	    -11.68163848	     -4.33506581	      4.69925736	      0.07443548	      0.97971143	     -0.42891604	     26.78950527	     -8.11642612	    -24.38593235	     31.92765232	      6.96608264	    -26.32152273	      0.00000000	     26.69029546	    -16.17312768	    -14.23322362	     28.73661056	      4.47279515	    -14.75594082	      0.00000000	    -10.70896873	      4.24151764	      1.93465347	     27.17646272	    -12.97257335	     33.79583693	    113.29022422	     91.42706910	     19.70144359	     -9.84084060	     29.95853132	    120.23196468	     76.08012757
      7.95000000	    -12.33785237	     -4.30165071	      4.74904434	      0.07053684	      0.97267833	     -0.42852217	     29.50431482	     -9.03397370	    -23.83103417	     35.55328421	      8.29263823	    -27.12639519	      0.00000000	     29.77983175	    -16.57895951	    -13.39417168	     32.45463627	      5.29234263	    -16.19701494	      0.00000000	    -11.33596439	      4.02720682	      1.87346845	     28.41472470	    -13.00145304	     33.54183798	    113.41487325	     91.77026785	     21.07988314	     -9.86418047	     30.04997060	    120.23910065	     76.41637521
      7.96666670	    -13.02344271	     -4.27442064	      4.72456732	      0.06699073	      0.96694736	     -0.42755116	     32.12932383	     -9.88177320	    -23.39798024	     38.95250248	      9.68812698	    -27.36754226	      0.00000000	     32.70242734	    -16.98414222	    -12.50344775	     35.94974408	      6.28437261	    -16.75433717	      0.00000000	    -12.16757374	      3.78996267	      1.81646378	     29.66870158	    -13.05568536	     33.29930281	    113.63623390	     92.15015207	     22.51972011	     -9.77655706	     30.06126778	    120.20520932	     76.75228012
      7.98333330	    -13.68696705	     -4.16115811	      4.91664876	      0.06311727	      0.95532913	     -0.42674859	     34.70184771	    -10.97467267	    -23.06869854	     42.52850192	     11.71729272	    -26.62639521	      0.00000000	     35.59955702	    -17.18844312	    -11.56270475	     39.40463305	      7.03027213	    -17.66925461	      0.00000000	    -12.99613830	      3.36110839	      1.96715284	     30.55464600	    -13.23267755	     32.33542750	    114.09378890	     94.34780634	     24.25217238	     -9.54749483	     30.44104992	    119.70957766	     78.56671547
